<?xml version="1.0" encoding="UTF-8" standalone="no"?>
<!DOCTYPE svg PUBLIC "-//W3C//DTD SVG 1.1//EN" "http://www.w3.org/Graphics/SVG/1.1/DTD/svg11.dtd">
<svg width="100%" height="100%" viewBox="0 0 250 250" version="1.1" xmlns="http://www.w3.org/2000/svg" xmlns:xlink="http://www.w3.org/1999/xlink" xml:space="preserve" xmlns:serif="http://www.serif.com/" style="fill-rule:evenodd;clip-rule:evenodd;stroke-linejoin:round;stroke-miterlimit:2;">
    <g transform="matrix(0.760653,0,0,0.760653,-204.349005,-392.774424)">
        <path d="M275.899,729.078C271.187,713.78 268.649,697.533 268.649,680.697C268.649,663.862 271.187,647.614 275.899,632.316C291.862,580.498 332.783,539.577 384.601,523.614C399.899,518.902 416.146,516.365 432.982,516.365C449.817,516.365 466.065,518.902 481.363,523.614C533.181,539.577 574.102,580.498 590.065,632.316C594.777,647.614 597.314,663.862 597.314,680.697C597.314,697.533 594.777,713.78 590.065,729.078C574.102,780.896 533.181,821.818 481.363,837.78C466.065,842.492 449.817,845.03 432.982,845.03C416.146,845.03 399.899,842.492 384.601,837.78C332.783,821.818 291.862,780.896 275.899,729.078ZM364.35,769.742C377.187,769.742 389.5,764.642 398.578,755.565C407.655,746.487 412.755,734.175 412.755,721.338L412.755,719.238C412.755,717.513 413.44,715.859 414.66,714.64C415.879,713.42 417.533,712.735 419.258,712.735L446.131,712.735C461.743,712.735 476.716,706.533 487.755,695.494C498.794,684.455 504.996,669.482 504.996,653.87L504.996,650.058C504.996,617.801 478.847,591.652 446.591,591.652L417.932,591.652C386.472,591.652 360.968,617.156 360.968,648.617L360.968,766.361C360.968,768.228 362.482,769.742 364.35,769.742ZM456.056,659.053L422.141,676.01C420.133,677.014 417.749,676.907 415.839,675.727C413.929,674.546 412.767,672.461 412.767,670.217L412.767,636.302C412.767,634.057 413.929,631.972 415.839,630.792C417.749,629.612 420.133,629.504 422.141,630.508L456.056,647.466C458.25,648.563 459.637,650.806 459.637,653.259C459.637,655.713 458.25,657.956 456.056,659.053ZM426.898,744.922C420.048,744.922 414.488,750.482 414.488,757.332C414.488,764.181 420.048,769.742 426.898,769.742C433.747,769.742 439.308,764.181 439.308,757.332C439.308,750.482 433.747,744.922 426.898,744.922ZM456.035,744.922C449.186,744.922 443.625,750.482 443.625,757.332C443.625,764.181 449.186,769.742 456.035,769.742C462.885,769.742 468.446,764.181 468.446,757.332C468.446,750.482 462.885,744.922 456.035,744.922ZM485.249,744.922C478.399,744.922 472.839,750.482 472.839,757.332C472.839,764.181 478.399,769.742 485.249,769.742C492.098,769.742 497.659,764.181 497.659,757.332C497.659,750.482 492.098,744.922 485.249,744.922Z" style="fill:url(#_Linear1);"/>
    </g>
    <defs>
        <linearGradient id="_Linear1" x1="0" y1="0" x2="1" y2="0" gradientUnits="userSpaceOnUse" gradientTransform="matrix(-211.57896,283.455226,-283.455226,-211.57896,527.41341,542.426337)"><stop offset="0" style="stop-color:rgb(91,103,128);stop-opacity:1"/><stop offset="1" style="stop-color:rgb(1,7,49);stop-opacity:1"/></linearGradient>
    </defs>
</svg>
